<svg width="32" height="32" viewBox="0 0 32 32" fill="none" xmlns="http://www.w3.org/2000/svg">
<rect width="32" height="32" fill="#E5E5E5"/>
<g id="Desktop + time" clipPath="url(#clip0_0_1)">
<rect width="1440" height="1024" transform="translate(-88 -70)" fill="white"/>
<g id="Component 1206">
<g id="Group 1216">
<g id="Rectangle 28" filter="url(#filter0_d_0_1)">
<rect x="-88" y="-70" width="1440" height="70" fill="white"/>
</g>
</g>
</g>
<g id="tomato 1" clipPath="url(#clip1_0_1)">
<path id="Vector" d="M31.1321 18.6267C31.1321 26.9646 24.3728 32 16.0349 32C7.69678 32 0.9375 25.2407 0.9375 16.9026C0.9375 8.5647 7.90796 3.43848 16.2459 3.43848C24.584 3.43848 31.1321 10.2886 31.1321 18.6267Z" fill="#DC3E22"/>
<path id="Vector_2" d="M22.5906 10.0853C21.8571 9.33841 20.6703 8.64392 19.7866 8.44084C20.2722 8.0102 20.37 7.996 20.9783 7.69457C22.5372 6.92297 24.8462 6.85193 24.8462 6.85193C24.8462 6.85193 22.1209 5.44341 20.1282 5.53179C19.6209 5.55411 19.0858 5.73332 18.5696 5.98727C18.8607 5.57648 19.1365 5.16803 19.3128 4.86119C19.8523 3.92299 20.4194 2.74107 20.4194 2.74107C20.4194 2.74107 18.3299 2.85263 17.3608 4.01257C16.9927 4.45321 16.7149 5.01305 16.5115 5.53825C16.1504 5.1234 15.7518 4.75399 15.3532 4.46561C13.3601 3.02322 10.1755 3.33527 10.1755 3.33527C10.1755 3.33527 12.5812 4.69993 13.6636 6.0613C14.0862 6.59293 14.5151 6.83879 14.7715 7.43486C13.8853 7.24299 11.8857 7.30857 10.9041 7.6725C8.38182 8.60798 7.29497 12.372 7.29497 12.372C7.29497 12.372 9.7563 10.6755 13.1052 9.48528C13.8415 9.22368 14.62 9.15435 15.2985 9.16626C14.9905 9.64607 14.654 10.2691 14.3994 11.0038C13.7799 12.7924 14.5985 17.0491 14.5985 17.0491C14.5985 17.0491 16.3918 14.5318 17.1226 12.4926C17.4976 11.4459 17.5904 10.395 17.5925 9.61945C18.2575 9.91454 19.0408 10.3456 19.6262 10.7184C22.6237 12.6282 24.0577 16.1149 24.0577 16.1149C24.0577 16.1149 24.4754 12.0048 22.5906 10.0853V10.0853Z" fill="#899441"/>
<path id="Vector_3" d="M16.4007 8.24755C16.3912 8.24755 16.3816 8.24731 16.3721 8.24706C15.7793 8.23168 15.3113 7.73901 15.3257 7.14672C15.3269 7.09545 15.3787 3.489 13.3753 1.92089C12.908 1.55516 12.8255 0.879869 13.1912 0.412339C13.5572 -0.0549467 14.2325 -0.137466 14.6997 0.228501C17.5647 2.47045 17.4793 7.00902 17.4744 7.20116C17.459 7.78466 16.981 8.24755 16.4007 8.24755V8.24755Z" fill="#A8B64F"/>
</g>
</g>
<defs>
<filter id="filter0_d_0_1" x="-151" y="-123" width="1566" height="196" filterUnits="userSpaceOnUse" color-interpolation-filters="sRGB">
<feFlood flood-opacity="0" result="BackgroundImageFix"/>
<feColorMatrix in="SourceAlpha" type="matrix" values="0 0 0 0 0 0 0 0 0 0 0 0 0 0 0 0 0 0 127 0" result="hardAlpha"/>
<feOffset dy="10"/>
<feGaussianBlur stdDeviation="31.5"/>
<feColorMatrix type="matrix" values="0 0 0 0 0 0 0 0 0 0 0 0 0 0 0 0 0 0 0.07 0"/>
<feBlend mode="normal" in2="BackgroundImageFix" result="effect1_dropShadow_0_1"/>
<feBlend mode="normal" in="SourceGraphic" in2="effect1_dropShadow_0_1" result="shape"/>
</filter>
<clipPath id="clip0_0_1">
<rect width="1440" height="1024" fill="white" transform="translate(-88 -70)"/>
</clipPath>
<clipPath id="clip1_0_1">
<rect width="32" height="32" fill="white"/>
</clipPath>
</defs>
</svg>
